<?xml version="1.0" standalone="no"?><!DOCTYPE svg PUBLIC "-//W3C//DTD SVG 1.1//EN" "http://www.w3.org/Graphics/SVG/1.1/DTD/svg11.dtd"><svg t="1556092249298" class="icon" style="" viewBox="0 0 1024 1024" version="1.1" xmlns="http://www.w3.org/2000/svg" p-id="1612" xmlns:xlink="http://www.w3.org/1999/xlink" width="200" height="200"><defs><style type="text/css"></style></defs><path d="M943.969337 550.590738a433.710505 433.710505 0 0 1-392.207259 392.555493v80.663823h-78.827675v-80.790453a433.710505 433.710505 0 0 1-392.207259-392.555494h-80.727138v-78.764361h80.822111a433.900451 433.900451 0 0 1 392.112286-390.972608v-80.727138h78.827675v80.727138a433.963767 433.963767 0 0 1 392.143944 390.972608h80.727138v78.764361h-80.663823z m-79.492487-78.764361a354.946145 354.946145 0 0 0-312.714772-311.891671v76.453348h-78.827675V159.934706a354.946145 354.946145 0 0 0-312.714772 311.891671h76.231744v78.764361H159.998027a354.914487 354.914487 0 0 0 312.936376 313.411241v-76.390033h78.827675v76.390033a354.977803 354.977803 0 0 0 312.968034-313.411241h-76.548322v-78.764361h76.29506z m-352.160267 157.497063a118.114883 118.114883 0 1 1 118.209856-118.114883 118.209856 118.209856 0 0 1-118.209856 118.114883z" p-id="1613"></path></svg>